<svg xmlns="http://www.w3.org/2000/svg" width="56" height="50" viewBox="0 0 56 50">
    <g fill="none" fill-rule="evenodd">
        <path fill="#000" fill-rule="nonzero" d="M7.321 2.932C9.631 1.38 12.367.53 15.126.219c2.655-.31 5.482-.23 8.115.265-5-.713-10.495-.046-14.69 2.942-3.678 2.61-6.046 6.989-6.219 11.494-.183 4.506 1.828 9.058 5.288 11.954 2.115 1.782 4.758 2.92 7.494 3.31 2.977.426 5.333-.264 8.023-1.436 1.184-.517 2.115-1.862 3.08-2.828 1.047-1.046 2.046-2.057 2.748-3.08-.552-.655-1.931-1.046-3.207-1.138-.724-.057-1.977-.655-3.483.241-.448.265-.759.817-1.345.817-.207 0-.61-.23-.586-.667.034-.575 1.425-.494 1.85-.747.483-.3.782-.391.77-1-.01-.598-.827-.747-1.735-.874-.747-.115-1.517.058-1.977-.276-.276-.195-.471-.793.31-1.39.322-.242.77-.104 1.437.62.437.483 1.161.747 1.874.759 1.402-.38-1.46-2.943-1.196-3.747.23-.678.84-.701.977-.724 1.288-.161.161 4.011 1.736 3.678.287-.058.517-1.805.517-2.104.012-.574.012-1.195.3-1.437.919-.379 1.091.38 1.045.76-.069.62-.977 1.528-1 2.229-.023.701.402.84.736.506.333-.322.574-1.104 1.046-1 .345.126.735.69.333 1.16-.414.483-1.299.242-1.874.863-.413.448-.172 1.103.161 1.276 1.69.7 5.667.023 6.207 1.781.219.736-.333 1.954-.747 2.667-.483.804-1.057 1.333-1.586 1.92.299-.323 1.184-.518 1.586-.713 1.345-.655 2.54-1.322 3.598-2.38.356-.356 1.988-1.92 1.115-2.436-.862-.506-1.517-.23-2.253-.495-.92-.333-1.724-1.39-2.494-2.16-.679-.679-1.759-2.115-2.334-2.253-.586-.138-1.551.597-1.896.402-.161-.092-.333-.598-.012-1.069.219-.322.678.034 1.127.138.31.103.908.218 1.046-.138-.322-1.115-2.506-1.506-2.747-1.92-.242-.413.264-1.069.827-.92.586.162 1.828 2.518 2.414 2.081.586-.436-1.184-2.046-.989-2.735.127-.449.77-.575 1.265-.426.494.15-.104 2.161.517 2.862a.704.704 0 0 0 .701-.091c.31-.552.494-1.817 1.334-1.61.367.092.62.679.413 1-.207.322-1.287.38-1.356 1.07-.046.47.287.712.655.735.38.034 1.908-1.012 2.035.115.115 1.138-1.552.38-1.759.402-1.299.184.023 2.437.575 2.862 1.034.782 3.103.874 4.356.31.575-.252.954-.827 1.414-1 .586-.218 2.506-.16 3-.333 1.747-.597 1.839-4.011 2.747-5.574 1.529-2.667 5.23-3.897 8.908-4.357.966-.126 2.529.08 2.667 1.414.126 1.195-.747 2.874-1.334 4-1.046 2-2.425 3.69-4.413 4.667-1.885.92-4.598.862-4.667 3.666-.046 1.943.506 3.633.667 5.828 1.23-.31 3-1.862 2.62-3.839-.138-.69-.574-.84-.954-1.414-.046-.598.54-.839.897-.448.322.655.195 1.62.77 1.701 1.471.207.092-2.529.494-2.92.414-.379.977-.528 1.173.184.126.46-1.265 2.391-.012 2.564 1.207.172.84-2.035 1.828-2.08.69-.035.54.574.425.804-.184.402-.793.885-1.15 1.287-.298.333-.47.563.23 1.058.954.08 2.817-.977 2.587.252-.196 1.058-1.644-.39-2.483.345-.184.46-.333.793-.184 1.242.253.735 2.046.379 1.414 1.586-1.046.333-1.288-1-1.931-1.172-.644-.173-1.437-.276-2.15-.161-1.436.23-2.31 2.781-4 2.666-.885-.448-.551-3.666-1.92-3.827-.666-.08-1.08.586-1.482 1-2.977 3.115-6.966 5.505-11.207 6.344-.908.184-2.069.345-2.425 1.345-.713 2.012.103 8.173-1.494 8.655-1.552.472-5.437-.39-6 .495-1.058 1.667 2.252.644 2.712 1.241.46.598.345.977-.253 1.08-.586.104-1.758-1.057-2.85-.46-1.104.598 3.126 1.713 2.988 2.53-.069.402-.287.93-1.011.69-.61-.196-1.816-2.369-2.368-2.185-.747.242-.035 2.276 0 2.793.023.334-.448.679-1.126.564-.955-.253 1.126-3.46-.587-3.908-.54-.138-.977 1.183-1.207 1.839-.241.666-.368 1.321-1.034 1.333-.402 0-.85-.828-.747-1.287.115-.506 2.563-1.954 2.322-2.874-.161-.62-1.368-.552-2.345-.287-.529.138-1.173.666-1.736.655-.425-.127-.793-1.38-.16-1.62.62-.242 2.091.424 3.206.045.701-.241 1.092-1.011 1.954-1.287 1.84-.598 4.207.241 5.747-1-.31-1.701-.195-3.805-.414-5.667-.115-.977-.954-1.16-1.804-1.218-6.115-.391-13.138-1.747-17.483-6.472C2.17 24.955.597 20.702.55 16.437c-.035-3 .701-6.01 2.253-8.654 1.138-1.92 2.667-3.61 4.517-4.851z"/>
        <path fill="#2EC4B6" d="M37.866 37.28c-.196 2.59-.56 8.204.014 8.568-.168.476-1.092.854-1.568.868-1.68.042-1.33-4.536-1.05-7.966l-.868.994C33.26 41.046 32 38.946 32 38.946c.588-.266 3.864-5.32 5.46-3.584.588.63.448 1.428.406 1.918zm5.145 2.926c1.022.546 2.282 1.666 2.282 3.934 0 3.486-5.726 4.312-6.79-.532 1.386-1.568 2.086-.448 3.024.49.63.644 1.638.7 2.016.112 1.484-2.352-2.324-4.088-2.324-4.088l-.084-.448s1.862-.7 2.478-1.848c.658-1.246-.476-.448-2.408.406-1.484.644-1.736-1.792-1.736-1.792.602 0 4.578-2.492 5.166-.378.56 1.988-1.54 3.206-2.702 3.738.126.028.308.084.518.168.182.056.56.238.56.238z"/>
    </g>
</svg>
